<svg id="Layer_1" data-name="Layer 1" xmlns="http://www.w3.org/2000/svg" viewBox="0 0 75.38 149.3"><defs><style>.cls-1{fill:#5c67b0;}.cls-2{fill:#343d60;}.cls-3{fill:#475180;}</style></defs><title>stephen-logo-mark</title><path class="cls-1" d="M27.26,65.85,56.38,95,15.87,127.1a2.64,2.64,0,0,0-.9,1.71l-3.14,16.9a2.38,2.38,0,0,0,.27,1.67c.08.16.32.15.44.14s.35,0,.5-.19l52-42.1c7.23-5.77,9.18-16.24,4-21.54l-1.38-1.37L32,45.61c-.15-.41-.62-.39-.94,0a3.31,3.31,0,0,0-.88,1.63L27,64.18C26.83,65,27,65.61,27.26,65.85Z"/><path class="cls-2" d="M30.13,47.28,27,64.18c-.16.85,0,1.43.27,1.67L56.38,95s8.74-5.75,11.3-12.65L32,45.61c-.15-.41-.62-.39-.94,0A3.31,3.31,0,0,0,30.13,47.28Z"/><path class="cls-1" d="M60.53,20.62l3.14-16.9a2.14,2.14,0,0,0-.29-1.58c-.15-.41-.62-.39-.93,0L12.36,42.69,10.45,44.2c-7.25,5.85-9.2,16.33-4,21.55l37.09,38.16c.09.16.2.15.44.14a.63.63,0,0,0,.5-.19,3.55,3.55,0,0,0,.9-1.71l3.14-16.9c.16-.84,0-1.42-.27-1.66L19.11,54.54,59.63,22.33A2.61,2.61,0,0,0,60.53,20.62Z"/><path class="cls-3" d="M63.67,3.72l-3.14,16.9a2.61,2.61,0,0,1-.9,1.71L19.11,54.54s-6.74-5.06-6.75-11.85L62.45,2.18c.31-.43.78-.45.93,0A2.14,2.14,0,0,1,63.67,3.72Z"/></svg>