<?xml version="1.0" standalone="no"?>
<!DOCTYPE svg PUBLIC "-//W3C//DTD SVG 20010904//EN"
 "http://www.w3.org/TR/2001/REC-SVG-20010904/DTD/svg10.dtd">
<svg version="1.0" xmlns="http://www.w3.org/2000/svg"
 width="1192.000000pt" height="1192.000000pt" viewBox="0 0 1192.000000 1192.000000"
 preserveAspectRatio="xMidYMid meet">
<metadata>
Created by potrace 1.11, written by Peter Selinger 2001-2013
</metadata>
<g transform="translate(0.000000,1192.000000) scale(0.100000,-0.100000)"
fill="#000000" stroke="none">
<path d="M7895 11718 c-85 -72 -73 -62 -525 -427 -91 -74 -166 -137 -168 -142
-2 -5 -10 -9 -17 -9 -7 0 -15 -4 -17 -8 -1 -5 -86 -75 -188 -157 -102 -81
-190 -154 -196 -162 -6 -7 -16 -13 -22 -13 -6 0 -12 -4 -14 -8 -1 -5 -95 -82
-208 -173 -113 -90 -207 -166 -210 -169 -4 -5 -125 -103 -184 -150 -10 -8 -35
-28 -55 -45 -20 -16 -42 -34 -49 -40 -7 -5 -22 -17 -32 -27 -10 -9 -21 -14
-24 -10 -3 3 -6 1 -6 -5 0 -5 -45 -45 -101 -89 -55 -43 -111 -88 -124 -99 -25
-22 -28 -24 -135 -110 -41 -33 -84 -67 -95 -77 -76 -63 -168 -136 -192 -155
-16 -12 -42 -34 -57 -48 -15 -14 -29 -25 -32 -25 -3 0 -19 -13 -37 -30 -18
-16 -35 -30 -39 -30 -4 0 -15 -8 -25 -18 -15 -16 -158 -133 -188 -154 -5 -4
-30 -26 -55 -48 -25 -22 -48 -40 -52 -40 -4 0 -15 -8 -25 -18 -10 -10 -52 -45
-93 -77 -41 -33 -84 -67 -95 -77 -48 -39 -105 -85 -140 -113 -21 -16 -43 -35
-49 -40 -6 -6 -72 -59 -146 -118 -74 -60 -152 -123 -173 -140 -48 -40 -67 -55
-107 -87 -17 -14 -41 -33 -53 -44 -12 -10 -60 -48 -107 -85 -118 -92 -173
-142 -261 -238 -59 -64 -201 -271 -201 -293 0 -3 -9 -17 -20 -32 -11 -16 -17
-28 -13 -28 3 0 -2 -15 -12 -32 -9 -18 -17 -35 -18 -38 0 -3 -3 -9 -6 -15 -7
-12 -48 -133 -54 -161 -2 -10 -12 -53 -21 -94 -19 -81 -25 -309 -11 -390 11
-68 12 -71 31 -135 23 -75 65 -162 114 -230 33 -47 247 -272 673 -706 74 -77
135 -139 134 -139 0 0 60 -63 135 -139 378 -388 658 -676 747 -768 54 -56 208
-215 343 -353 295 -304 380 -391 710 -731 337 -347 309 -321 340 -314 51 12
99 98 116 209 3 21 8 48 10 60 2 11 7 37 10 56 3 19 7 42 9 50 3 8 7 33 10 55
4 22 8 48 11 57 6 19 10 42 18 89 3 19 10 57 16 84 5 28 12 66 15 85 2 19 7
46 10 60 16 82 35 180 40 210 3 19 8 42 10 50 2 8 7 35 10 59 3 23 7 47 10 51
3 5 7 21 9 37 9 76 19 129 25 141 5 8 119 -100 329 -310 l323 -323 -31 -25
c-115 -93 -135 -108 -191 -151 -40 -31 -145 -114 -239 -189 -19 -15 -87 -69
-150 -119 -63 -50 -122 -97 -130 -104 -8 -7 -100 -80 -205 -162 -104 -82 -195
-154 -202 -160 -17 -14 -24 -19 -138 -110 -55 -43 -105 -84 -112 -90 -33 -28
-43 -35 -43 -32 0 2 -15 -9 -32 -24 -27 -23 -283 -226 -386 -306 -12 -10 -28
-23 -35 -28 -6 -6 -32 -26 -57 -45 -25 -19 -47 -37 -50 -40 -3 -3 -36 -30 -75
-60 -82 -64 -76 -59 -185 -146 -47 -38 -86 -72 -88 -76 -2 -4 -10 -8 -17 -8
-7 0 -15 -4 -17 -8 -1 -4 -68 -59 -148 -122 -80 -63 -152 -120 -160 -127 -8
-6 -35 -28 -60 -47 -25 -20 -49 -40 -55 -44 -10 -7 -115 -91 -145 -115 -8 -7
-69 -55 -135 -106 -204 -161 -207 -164 -230 -315 -2 -15 -6 -35 -9 -45 -3 -9
-8 -34 -11 -56 -3 -23 -8 -52 -10 -65 -19 -89 -27 -127 -30 -145 -3 -24 -12
-72 -26 -145 -6 -30 -13 -68 -15 -85 -3 -16 -7 -41 -10 -55 -13 -70 -25 -129
-33 -170 -5 -25 -12 -67 -16 -94 -3 -27 -8 -53 -10 -57 -3 -4 -7 -24 -11 -44
-3 -21 -8 -47 -10 -59 -4 -22 -23 -127 -29 -161 -2 -11 -6 -33 -10 -50 -16
-76 -16 -130 2 -165 29 -56 48 -51 164 42 57 45 106 85 109 88 3 3 39 32 80
65 41 33 77 62 80 65 3 3 28 23 55 45 28 22 52 43 53 47 2 5 10 8 18 8 8 0 14
3 14 8 0 4 34 34 77 67 42 33 81 65 87 70 6 6 45 37 86 69 41 33 80 65 85 71
6 5 30 26 55 45 25 19 50 39 57 45 6 5 29 24 50 40 21 17 66 54 100 83 34 28
67 52 72 52 5 0 11 4 13 9 2 5 44 42 93 81 50 40 92 75 95 79 3 4 21 18 40 31
19 13 37 27 40 30 3 3 30 25 60 50 30 25 57 47 60 50 3 3 21 17 40 31 19 15
45 35 56 45 12 11 39 33 60 49 21 17 54 44 74 60 20 17 53 44 74 60 22 17 44
35 50 40 6 6 31 26 56 45 25 19 47 37 50 41 3 3 52 44 110 90 58 47 114 92
125 101 41 34 153 124 190 153 21 17 46 37 55 45 8 8 40 34 70 57 30 23 64 50
75 60 11 10 76 63 145 118 69 54 154 123 190 153 85 71 97 81 150 122 25 19
47 37 50 40 3 4 40 34 83 68 44 35 85 68 92 75 7 6 28 23 46 37 18 14 37 30
43 35 6 6 31 26 56 45 25 19 84 66 131 105 47 38 101 82 120 97 19 14 45 36
59 48 14 12 40 34 59 48 297 235 395 322 489 430 58 68 82 101 140 191 32 51
120 234 128 268 4 15 9 33 13 38 3 6 6 15 7 20 2 6 11 44 22 85 74 282 37 582
-97 791 -27 42 -88 116 -136 165 -48 49 -191 196 -318 327 -128 132 -281 290
-342 352 -60 62 -220 227 -355 365 -135 139 -285 294 -335 345 -49 50 -192
197 -317 326 -125 129 -284 293 -353 364 -70 72 -197 202 -283 291 -130 133
-583 601 -630 650 -33 35 -121 -67 -137 -157 -4 -19 -15 -79 -25 -134 -11 -55
-22 -116 -25 -135 -3 -19 -8 -42 -10 -50 -2 -8 -6 -31 -9 -50 -3 -19 -8 -46
-11 -60 -10 -51 -14 -76 -19 -110 -3 -19 -8 -45 -11 -57 -11 -50 -14 -62 -19
-99 -4 -22 -8 -46 -11 -54 -2 -8 -6 -31 -9 -50 -7 -41 -14 -85 -21 -120 -8
-40 -14 -71 -25 -130 -6 -30 -12 -66 -15 -80 -3 -14 -8 -38 -11 -55 -3 -16 -6
-31 -8 -32 -1 -1 -147 142 -325 319 l-323 322 31 25 c16 15 42 36 58 48 56 43
359 284 397 316 21 18 45 36 53 41 8 4 23 16 32 25 9 9 30 25 45 36 16 11 34
26 42 33 7 7 35 29 61 49 26 19 56 43 65 52 22 21 32 29 103 81 33 25 62 48
65 51 3 3 57 47 120 97 63 50 120 95 125 99 6 5 66 53 135 108 69 54 131 105
138 112 7 7 16 13 20 13 4 0 21 14 39 30 18 17 36 30 42 30 5 0 11 4 13 9 2 5
94 81 204 168 111 88 208 165 215 171 27 22 146 117 176 140 16 12 43 33 59
46 16 13 146 117 289 230 143 114 267 212 275 219 13 11 281 223 320 254 87
68 150 128 163 155 8 18 20 60 26 93 6 33 13 71 16 85 3 14 16 86 30 160 14
74 27 146 30 160 2 13 11 63 20 110 22 129 25 144 31 163 3 10 7 32 10 50 2
18 6 43 9 57 5 25 22 117 31 165 2 14 6 35 8 48 13 72 46 247 52 272 12 52 9
139 -7 170 -23 47 -54 43 -124 -17z"/>
</g>
</svg>
